<svg width="832" height="141" viewBox="0 0 832 141" fill="none" xmlns="http://www.w3.org/2000/svg">
  <g clip-path="url(#clip0_150_139)">
    <path
      d="M414.003 36.301V102.699C414.003 104.289 415.301 105.578 416.901 105.578H421.364C423.649 105.578 425.503 107.418 425.503 109.69V114.121C425.503 115.71 426.801 117 428.401 117H437.102C438.702 117 440 115.71 440 114.121V107.949C440 106.359 438.702 105.069 437.102 105.069H430.151C427.867 105.069 426.012 103.23 426.012 100.957V38.0393C426.012 35.7701 427.864 33.9275 430.151 33.9275H437.099C438.699 33.9275 439.997 32.6381 439.997 31.0484V24.8792C439.997 23.2895 438.699 22 437.099 22H428.398C426.798 22 425.5 23.2895 425.5 24.8792V29.3101C425.5 31.5793 423.649 33.4219 421.361 33.4219H416.898C415.298 33.4219 414 34.7113 414 36.301H414.003Z"
      fill="black" />
    <path
      d="M831.997 102.694V36.3001C831.997 34.7105 830.699 33.4211 829.099 33.4211H824.635C822.351 33.4211 820.497 31.5818 820.497 29.3096V24.879C820.497 23.2894 819.199 22 817.599 22H808.898C807.298 22 806 23.2894 806 24.879V31.0509C806 32.6405 807.298 33.9299 808.898 33.9299H815.849C818.133 33.9299 819.988 35.7692 819.988 38.0414V100.959C819.988 103.228 818.136 105.07 815.849 105.07H808.901C807.301 105.07 806.003 106.359 806.003 107.949V114.121C806.003 115.711 807.301 117 808.901 117H817.602C819.202 117 820.5 115.711 820.5 114.121V109.69C820.5 107.421 822.351 105.579 824.639 105.579H829.102C830.702 105.579 832 104.289 832 102.7L831.997 102.694Z"
      fill="black" />
    <path
      d="M234.41 67.3493C231.253 66.0746 227.398 65.0117 222.845 64.1577H222.748C218.324 63.3732 215.004 62.6521 212.793 61.9973C210.58 61.3457 208.841 60.46 207.574 59.3466C206.306 58.2332 205.671 56.6959 205.671 54.7316C205.671 51.8531 206.744 49.6611 208.891 48.1554C211.039 46.6498 213.868 45.897 217.381 45.897C221.22 45.897 224.323 46.8775 226.7 48.8418C228.832 50.6069 230.137 52.8464 230.618 55.5603C230.712 56.1012 231.168 56.5029 231.715 56.5061L242.513 56.5883C243.176 56.5947 243.705 56.0221 243.639 55.3579C243.277 51.7266 242.085 48.4275 240.07 45.4541C237.825 42.1487 234.734 39.5802 230.8 37.7488C226.864 35.9173 222.393 35 217.384 35C212.636 35 208.357 35.8825 204.552 37.6507C200.747 39.4189 197.786 41.8703 195.673 45.0145C193.556 48.1554 192.5 51.6918 192.5 55.6173C192.5 59.9381 193.443 63.4049 195.33 66.024C197.216 68.643 199.688 70.6231 202.747 71.9643C205.803 73.3055 209.479 74.3683 213.774 75.1559L214.261 75.254C218.814 76.1048 222.213 76.8577 224.458 77.5124C226.703 78.1672 228.474 79.0845 229.775 80.2612C231.077 81.441 231.728 83.0447 231.728 85.0723C231.728 87.9539 230.558 90.2092 228.216 91.8446C225.873 93.4799 222.849 94.2991 219.142 94.2991C214.718 94.2991 211.139 93.1699 208.407 90.9114C205.92 88.8554 204.458 86.2205 204.017 83.0005C203.942 82.4437 203.483 82.0199 202.923 82.0136L192.138 81.8491C191.481 81.8396 190.953 82.3963 191.003 83.0542C191.308 87.0145 192.541 90.5825 194.695 93.7582C197.069 97.2598 200.339 100.009 204.502 102.005C208.665 104.001 213.447 105 218.846 105C223.855 105 228.345 104.083 232.313 102.251C236.281 100.42 239.387 97.883 241.632 94.6439C243.877 91.4049 245 87.7578 245 83.6995C245 79.3787 244.022 75.8961 242.073 73.2454C240.12 70.5947 237.567 68.6304 234.413 67.3556L234.41 67.3493Z"
      fill="black" />
    <path
      d="M301.867 93.6922H300.171C299.19 93.6922 298.418 93.4307 297.864 92.9015C297.307 92.3755 297.028 91.5179 297.028 90.3288V71.4301C297.028 65.427 295.13 60.8585 291.332 57.7279C287.535 54.5972 283.063 53 276.057 53C269.443 53 264.275 54.4474 260.218 57.2847C256.519 59.8702 254.288 63.4121 253.525 67.9137C253.408 68.6118 253.93 69.2558 254.636 69.2558H264.617C265.117 69.2558 265.567 68.9243 265.699 68.4397C266.155 66.7723 267.161 65.4142 268.715 64.359C270.516 63.138 272.655 62.5291 275.471 62.5291C280.782 62.5291 284.56 65.8287 284.56 70.7414V72.2781C284.56 72.9061 284.054 73.413 283.434 73.413H274.392C267.06 73.413 261.494 74.8636 257.696 77.7647C253.899 80.669 252 84.7911 252 90.1311C252 94.7506 253.734 98.3786 257.206 101.015C259.81 102.995 262.921 104.136 266.127 104.637C268.576 105.019 271.089 105.16 273.544 104.761C276.114 104.347 278.202 103.279 280.291 101.758C282.168 100.393 283.734 98.6432 285.165 96.5072C285.861 95.3021 287.69 95.7835 287.69 97.1799V98.8568C287.69 101.904 290.139 104.379 293.168 104.379H301.873C302.497 104.379 303 103.868 303 103.243V94.8303C303 94.2022 302.494 93.6953 301.873 93.6953L301.867 93.6922ZM284.554 83.5C284.554 85.942 284.044 88.0684 283.032 89.8824C280.905 93.6858 277.101 95.6687 272.816 95.6687C270.326 95.6687 268.329 95.0758 266.826 93.8898C265.32 92.7007 264.566 91.1194 264.566 89.1396C264.566 86.8984 265.402 85.1673 267.07 83.9463C268.741 82.7285 271.111 82.1164 274.19 82.1164H283.427C284.051 82.1164 284.554 82.6265 284.554 83.2513V83.5Z"
      fill="black" />
    <path
      d="M337.882 36H324.962C318.146 36 312.618 41.5768 312.618 48.4597V53.9316C312.618 54.5576 312.114 55.0629 311.497 55.0629H304.121C303.501 55.0629 303 55.5713 303 56.1941V64.6785C303 65.3045 303.504 65.8098 304.121 65.8098H311.497C312.117 65.8098 312.618 66.3182 312.618 66.941V103.869C312.618 104.495 313.122 105 313.739 105H323.807C324.427 105 324.927 104.492 324.927 103.869V66.941C324.927 66.315 325.431 65.8098 326.048 65.8098H337.778C338.399 65.8098 338.899 65.3013 338.899 64.6785V56.1941C338.899 55.5681 338.396 55.0629 337.778 55.0629H326.048C325.428 55.0629 324.927 54.5544 324.927 53.9316V49.0126C324.927 47.7606 325.932 46.7469 327.172 46.7469H337.879C338.499 46.7469 339 46.2385 339 45.6156V37.1313C339 36.5052 338.496 36 337.879 36H337.882Z"
      fill="black" />
    <path
      d="M387.681 64.512C385.465 60.8182 382.437 57.9793 378.6 55.9984C374.763 54.0175 370.328 53 365.305 53C360.282 53 355.943 54.1005 352.106 56.2472C348.269 58.3939 345.292 61.4274 343.175 65.3541C341.058 69.2807 340 73.8836 340 79.1627C340 84.4418 341.094 88.8501 343.274 92.7735C345.458 96.7002 348.582 99.7209 352.652 101.832C356.72 103.947 361.5 105 366.993 105C371.227 105 375.016 104.225 378.357 102.675C381.695 101.124 384.394 98.9968 386.444 96.2887C388.199 93.9729 389.398 91.437 390.038 88.681C390.204 87.9665 389.663 87.2807 388.928 87.2807H378.654C378.162 87.2807 377.73 87.5997 377.574 88.0622C376.851 90.1962 375.572 91.8804 373.74 93.1212C371.687 94.5056 369.142 95.201 366.098 95.201C363.585 95.201 361.385 94.6746 359.498 93.6188C357.612 92.563 356.125 91.0797 355.031 89.1627C354.6 88.4067 354.248 87.6093 353.967 86.7863C353.666 85.9027 353.449 84.9904 353.298 84.0686C353.247 83.7464 353.199 83.4211 353.161 83.0957C353.084 82.4258 353.618 81.8389 354.296 81.8389H389.721C390.297 81.8389 390.789 81.4147 390.853 80.8437C390.901 80.4258 390.936 79.9984 390.952 79.5614C390.984 78.7703 391 78.0431 391 77.3828C391 72.4992 389.89 68.2089 387.675 64.512H387.681ZM377.037 73.2233H354.852C354.123 73.2233 353.577 72.5502 353.736 71.8421C354.091 70.2887 354.705 68.8852 355.578 67.6316C356.704 66.0144 358.159 64.7767 359.943 63.9187C361.73 63.0606 363.681 62.6332 365.797 62.6332C369.238 62.6332 372.084 63.5582 374.331 65.4051C376.26 66.9904 377.535 69.134 378.149 71.8389C378.312 72.5502 377.766 73.2265 377.037 73.2265V73.2233Z"
      fill="black" />
    <path
      d="M447 36H458.993L467.792 79.2332C468.663 83.4426 469.339 87.5542 469.725 92.4326H471.467C471.952 87.6489 472.724 83.4426 473.691 79.2332L483.07 39.2533H499.415L508.504 79.2332C509.375 83.3448 510.147 87.6489 510.632 92.4326H512.47C512.856 87.5542 513.631 83.5373 514.403 79.1386L523.202 36H535V40.0169L521.46 101.997H502.701L494.288 64.7906C493.321 60.4865 492.546 56.5643 492.064 51.4966H490.226C489.741 56.5674 488.969 60.3919 488.003 64.6013L479.299 102H460.636L447 40.0201V36.0032V36Z"
      fill="black" />
    <path
      d="M573.256 36L595 97.9829V102H583.166L578.453 87.5567H550.452L545.738 102H534V97.9829L555.744 36H573.256ZM554.109 76.654H574.796L568.444 57.3321C567 52.9331 566.038 49.4872 565.27 45.1829H563.537C562.864 49.4872 561.902 52.93 560.458 57.2342L554.106 76.6508L554.109 76.654Z"
      fill="black" />
    <path d="M601 36H613.152V90.8075H643V102H601V36Z" fill="black" />
    <path d="M649 36H661.151V90.8075H691V102H649V36Z" fill="black" />
    <path
      d="M698 36H743.328V47.0947H710.195V62.6859H739.197V73.6859H710.195V90.8075H744V102H698V36Z"
      fill="black" />
    <path d="M800 36V47.1899H780.186V102H767.814V47.1899H748V36H800Z" fill="black" />
  </g>
  <path
    d="M43.71 69.348C47.4073 70.0373 50.4467 71.886 52.828 74.894C55.2093 77.902 56.4 81.3487 56.4 85.234C56.4 88.7433 55.5227 91.8453 53.768 94.54C52.076 97.172 49.6007 99.24 46.342 100.744C43.0833 102.248 39.2293 103 34.78 103H6.486V37.388H33.558C38.0073 37.388 41.83 38.1087 45.026 39.55C48.2847 40.9913 50.7287 42.9967 52.358 45.566C54.05 48.1353 54.896 51.0493 54.896 54.308C54.896 58.1307 53.862 61.3267 51.794 63.896C49.7887 66.4653 47.094 68.2827 43.71 69.348ZM19.646 64.46H31.678C34.8113 64.46 37.224 63.7707 38.916 62.392C40.608 60.9507 41.454 58.914 41.454 56.282C41.454 53.65 40.608 51.6133 38.916 50.172C37.224 48.7307 34.8113 48.01 31.678 48.01H19.646V64.46ZM32.9 92.284C36.096 92.284 38.5713 91.532 40.326 90.028C42.1433 88.524 43.052 86.3933 43.052 83.636C43.052 80.816 42.112 78.6227 40.232 77.056C38.352 75.4267 35.814 74.612 32.618 74.612H19.646V92.284H32.9ZM106.838 37.388V48.01H89.3543V103H76.1943V48.01H58.7103V37.388H106.838ZM108.544 70.1C108.544 63.6453 109.986 57.88 112.868 52.804C115.814 47.6653 119.793 43.686 124.806 40.866C129.882 37.9833 135.554 36.542 141.82 36.542C149.152 36.542 155.576 38.422 161.09 42.182C166.605 45.942 170.459 51.1433 172.652 57.786H157.518C156.014 54.6527 153.884 52.3027 151.126 50.736C148.432 49.1693 145.298 48.386 141.726 48.386C137.904 48.386 134.488 49.2947 131.48 51.112C128.535 52.8667 126.216 55.3733 124.524 58.632C122.895 61.8907 122.08 65.7133 122.08 70.1C122.08 74.424 122.895 78.2467 124.524 81.568C126.216 84.8267 128.535 87.3647 131.48 89.182C134.488 90.9367 137.904 91.814 141.726 91.814C145.298 91.814 148.432 91.0307 151.126 89.464C153.884 87.8347 156.014 85.4533 157.518 82.32H172.652C170.459 89.0253 166.605 94.258 161.09 98.018C155.638 101.715 149.215 103.564 141.82 103.564C135.554 103.564 129.882 102.154 124.806 99.334C119.793 96.4513 115.814 92.472 112.868 87.396C109.986 82.32 108.544 76.5547 108.544 70.1Z"
    fill="black" />
  <defs>
    <clipPath id="clip0_150_139">
      <rect width="641" height="95" fill="white" transform="translate(191 22)" />
    </clipPath>
  </defs>
</svg>