<svg width="499" height="141" viewBox="0 0 499 141" fill="none" xmlns="http://www.w3.org/2000/svg">
<path d="M340.83 65.1975C337.613 63.9052 333.683 62.8283 329.041 61.9642H328.942C324.433 61.169 321.05 60.439 318.795 59.7743C316.54 59.1135 314.766 58.2179 313.472 57.0894C312.178 55.963 311.533 54.4045 311.533 52.414C311.533 49.4963 312.628 47.275 314.815 45.7501C317.005 44.2251 319.889 43.4616 323.47 43.4616C327.384 43.4616 330.548 44.4559 332.971 46.4464C335.145 48.2337 336.476 50.5044 336.966 53.2544C337.062 53.8028 337.526 54.2072 338.082 54.2132L349.09 54.296C349.765 54.3019 350.306 53.7219 350.238 53.0492C349.87 49.3701 348.656 46.0243 346.601 43.0138C344.312 39.6661 341.162 37.062 337.149 35.2037C333.136 33.3473 328.577 32.4182 323.47 32.4182C318.629 32.4182 314.269 33.3138 310.389 35.1051C306.51 36.8963 303.492 39.382 301.336 42.566C299.18 45.7501 298.102 49.3306 298.102 53.3097C298.102 57.6872 299.063 61.2028 300.987 63.8538C302.91 66.5073 305.429 68.5136 308.546 69.8728C311.663 71.2319 315.41 72.3093 319.787 73.1061L320.284 73.2048C324.924 74.0669 328.392 74.8303 330.68 75.4933C332.969 76.158 334.774 77.0853 336.101 78.2789C337.427 79.4725 338.09 81.0979 338.09 83.1536C338.09 86.0734 336.897 88.3594 334.509 90.0167C332.123 91.6759 329.037 92.5046 325.257 92.5046C320.746 92.5046 317.1 91.3603 314.315 89.0718C311.779 86.9905 310.288 84.3174 309.84 81.0543C309.763 80.4903 309.294 80.0622 308.726 80.0544L297.732 79.8884C297.063 79.8787 296.522 80.443 296.573 81.1098C296.885 85.1224 298.14 88.7382 300.337 91.9577C302.758 95.5067 306.09 98.2923 310.335 100.315C314.579 102.339 319.454 103.348 324.96 103.348C330.065 103.348 334.642 102.422 338.688 100.563C342.732 98.7066 345.9 96.1363 348.189 92.8536C350.477 89.5709 351.621 85.8739 351.621 81.7606C351.621 77.383 350.625 73.852 348.636 71.1651C346.648 68.4782 344.046 66.4918 340.83 65.1975Z" fill="black"/>
<path d="M408.431 92.0091H406.713C405.718 92.0091 404.937 91.7449 404.375 91.2119C403.811 90.6834 403.528 89.8193 403.528 88.6257V69.624C403.528 63.5896 401.605 58.997 397.76 55.8465C393.913 52.698 389.384 51.0922 382.288 51.0922C375.589 51.0922 370.355 52.548 366.244 55.3987C362.495 57.9988 360.237 61.5596 359.463 66.0869C359.343 66.7912 359.876 67.4363 360.588 67.4363H370.698C371.205 67.4363 371.659 67.1031 371.793 66.6138C372.254 64.939 373.273 63.5717 374.847 62.5122C376.67 61.2852 378.836 60.6719 381.688 60.6719C387.068 60.6719 390.893 63.988 390.893 68.928V70.4727C390.893 71.1039 390.382 71.6149 389.751 71.6149H380.593C373.166 71.6149 367.528 73.0747 363.683 75.9925C359.836 78.9118 357.913 83.0566 357.913 88.4267C357.913 93.0706 359.671 96.7182 363.186 99.3693C365.823 101.358 368.976 102.506 372.221 103.009C374.701 103.394 377.247 103.534 379.733 103.136C382.337 102.719 384.452 101.646 386.569 100.115C388.471 98.7421 390.057 96.9825 391.505 94.8359C392.211 93.6227 394.063 94.11 394.063 95.5128V97.1994C394.061 100.265 396.545 102.751 399.611 102.751H408.431C409.062 102.751 409.573 102.24 409.573 101.608V93.1493C409.573 92.518 409.062 92.0091 408.431 92.0091ZM390.895 81.7626C390.895 84.2167 390.38 86.3551 389.353 88.178C387.198 92.0014 383.343 93.9975 379.005 93.9975C376.484 93.9975 374.462 93.4017 372.937 92.2085C371.41 91.0149 370.649 89.4229 370.649 87.4321C370.649 85.1795 371.495 83.4374 373.186 82.2104C374.877 80.9854 377.279 80.3696 380.398 80.3696H389.753C390.384 80.3696 390.895 80.8806 390.895 81.5119V81.7626Z" fill="black"/>
<path d="M445.288 33.1459H432.132C425.192 33.1459 419.566 38.7722 419.566 45.7124V51.2341C419.566 51.8654 419.055 52.3764 418.424 52.3764H410.912C410.28 52.3764 409.769 52.8873 409.769 53.5186V62.0763C409.769 62.7076 410.28 63.2185 410.912 63.2185H418.424C419.055 63.2185 419.566 63.7295 419.566 64.3607V101.61C419.566 102.242 420.077 102.753 420.708 102.753H430.958C431.59 102.753 432.101 102.242 432.101 101.61V64.3607C432.101 63.7295 432.611 63.2185 433.243 63.2185H445.188C445.819 63.2185 446.33 62.7076 446.33 62.0763V53.5186C446.33 52.8873 445.819 52.3764 445.188 52.3764H433.243C432.611 52.3764 432.101 51.8654 432.101 51.2341V46.2726C432.101 45.0101 433.124 43.9882 434.385 43.9882H445.287C445.918 43.9882 446.429 43.4773 446.429 42.846V34.2881C446.429 33.6569 445.92 33.1459 445.288 33.1459Z" fill="black"/>
<path d="M495.507 62.6624C493.285 58.9497 490.249 56.0971 486.404 54.1066C482.557 52.118 478.113 51.0942 473.074 51.0942C468.036 51.0942 463.688 52.2009 459.843 54.3552C455.996 56.5114 453.011 59.5613 450.891 63.5069C448.768 67.4543 447.707 72.0786 447.707 77.3851C447.707 82.6916 448.801 87.1186 450.989 91.0643C453.179 95.0097 456.312 98.044 460.389 100.167C464.467 102.289 469.259 103.351 474.765 103.351C479.008 103.351 482.806 102.571 486.156 101.013C489.503 99.4562 492.206 97.3157 494.262 94.5974C496.021 92.2698 497.223 89.7207 497.866 86.953C498.034 86.2349 497.491 85.5445 496.753 85.5445H486.455C485.962 85.5445 485.53 85.8642 485.372 86.3316C484.646 88.4761 483.366 90.1705 481.529 91.4134C479.472 92.806 476.919 93.5025 473.869 93.5025C471.348 93.5025 469.144 92.972 467.255 91.9105C465.365 90.8511 463.873 89.3577 462.778 87.4342C462.346 86.6749 461.993 85.872 461.711 85.0454C461.409 84.1576 461.192 83.2422 461.042 82.3149C460.991 81.9915 460.944 81.664 460.904 81.3366C460.827 80.6617 461.362 80.072 462.041 80.072H497.552C498.128 80.072 498.621 79.6459 498.686 79.0717C498.736 78.6517 498.769 78.2235 498.787 77.7835C498.821 76.9887 498.837 76.2588 498.837 75.5957C498.837 70.6897 497.728 66.3769 495.507 62.6624ZM484.836 71.4155H462.595C461.865 71.4155 461.314 70.739 461.476 70.0266C461.831 68.4664 462.447 67.0579 463.323 65.795C464.449 64.1716 465.909 62.9266 467.7 62.0645C469.492 61.2025 471.447 60.7706 473.569 60.7706C477.018 60.7706 479.87 61.6996 482.125 63.5562C484.06 65.1503 485.335 67.3042 485.952 70.0209C486.114 70.7349 485.568 71.4155 484.836 71.4155Z" fill="black"/>
<path d="M84.6432 67.9313H74.8938C71.9822 67.9313 69.6227 70.2907 69.6227 73.2023V87.353C69.6227 90.265 67.2633 92.6244 64.3517 92.6244H25.5652C22.6534 92.6244 20.2939 94.9835 20.2939 97.8955V107.645C20.2939 110.556 22.6534 112.916 25.5652 112.916H66.5965C69.5081 112.916 71.8342 110.556 71.8342 107.645V99.8227C71.8342 96.9111 74.1936 94.8456 77.1052 94.8456H84.6411C87.5531 94.8456 89.9126 92.4862 89.9126 89.5742V73.1412C89.9126 70.2296 87.5552 67.9313 84.6432 67.9313Z" fill="black"/>
<path d="M20.2918 48.563C20.2918 45.6512 22.6512 43.2918 25.563 43.2918H64.3258C67.2374 43.2918 69.5969 40.9324 69.5969 38.0206V28.2712C69.5969 25.3594 67.2374 23 64.3258 23H23.316C20.4042 23 18.0448 25.3594 18.0448 28.2712V35.7835C18.0448 38.6952 15.6854 41.0547 12.7736 41.0547H5.27122C2.35942 41.0547 0 43.4141 0 46.3259V62.7769C0 65.6885 2.36928 67.9297 5.28109 67.9297H15.0304C17.9422 67.9297 20.3016 65.5702 20.3016 62.6582L20.2918 48.563Z" fill="black"/>
<path d="M40.3676 57.6828H49.7321C52.7839 57.6828 55.26 60.1605 55.26 63.2103V72.5751C55.26 75.627 52.7819 78.1027 49.7321 78.1027H40.3676C37.3158 78.1027 34.8398 75.625 34.8398 72.5751V63.2103C34.8398 60.1584 37.3178 57.6828 40.3676 57.6828Z" fill="black"/>
<path d="M150.71 69.348C154.407 70.0373 157.447 71.886 159.828 74.894C162.209 77.902 163.4 81.3487 163.4 85.234C163.4 88.7433 162.523 91.8453 160.768 94.54C159.076 97.172 156.601 99.24 153.342 100.744C150.083 102.248 146.229 103 141.78 103H113.486V37.388H140.558C145.007 37.388 148.83 38.1087 152.026 39.55C155.285 40.9913 157.729 42.9967 159.358 45.566C161.05 48.1353 161.896 51.0493 161.896 54.308C161.896 58.1307 160.862 61.3267 158.794 63.896C156.789 66.4653 154.094 68.2827 150.71 69.348ZM126.646 64.46H138.678C141.811 64.46 144.224 63.7707 145.916 62.392C147.608 60.9507 148.454 58.914 148.454 56.282C148.454 53.65 147.608 51.6133 145.916 50.172C144.224 48.7307 141.811 48.01 138.678 48.01H126.646V64.46ZM139.9 92.284C143.096 92.284 145.571 91.532 147.326 90.028C149.143 88.524 150.052 86.3933 150.052 83.636C150.052 80.816 149.112 78.6227 147.232 77.056C145.352 75.4267 142.814 74.612 139.618 74.612H126.646V92.284H139.9ZM213.838 37.388V48.01H196.354V103H183.194V48.01H165.71V37.388H213.838ZM215.544 70.1C215.544 63.6453 216.986 57.88 219.868 52.804C222.814 47.6653 226.793 43.686 231.806 40.866C236.882 37.9833 242.554 36.542 248.82 36.542C256.152 36.542 262.576 38.422 268.09 42.182C273.605 45.942 277.459 51.1433 279.652 57.786H264.518C263.014 54.6527 260.884 52.3027 258.126 50.736C255.432 49.1693 252.298 48.386 248.726 48.386C244.904 48.386 241.488 49.2947 238.48 51.112C235.535 52.8667 233.216 55.3733 231.524 58.632C229.895 61.8907 229.08 65.7133 229.08 70.1C229.08 74.424 229.895 78.2467 231.524 81.568C233.216 84.8267 235.535 87.3647 238.48 89.182C241.488 90.9367 244.904 91.814 248.726 91.814C252.298 91.814 255.432 91.0307 258.126 89.464C260.884 87.8347 263.014 85.4533 264.518 82.32H279.652C277.459 89.0253 273.605 94.258 268.09 98.018C262.638 101.715 256.215 103.564 248.82 103.564C242.554 103.564 236.882 102.154 231.806 99.334C226.793 96.4513 222.814 92.472 219.868 87.396C216.986 82.32 215.544 76.5547 215.544 70.1Z" fill="black"/>
</svg>
